<svg width="20" height="15" viewBox="0 0 20 15" fill="none" xmlns="http://www.w3.org/2000/svg">
<g clip-path="url(#clip0_1660_659)">
<rect width="20" height="15" fill="white"/>
<path fill-rule="evenodd" clip-rule="evenodd" d="M0 0V15H20V0H0Z" fill="#F7FCFF"/>
<mask id="mask0_1660_659" style="mask-type:luminance" maskUnits="userSpaceOnUse" x="0" y="0" width="20" height="15">
<path fill-rule="evenodd" clip-rule="evenodd" d="M0 0V15H20V0H0Z" fill="white"/>
</mask>
<g mask="url(#mask0_1660_659)">
<path fill-rule="evenodd" clip-rule="evenodd" d="M10 11.3872C12.0017 11.3872 13.6244 9.6639 13.6244 7.53811C13.6244 5.41232 12.0017 3.68903 10 3.68903C7.99831 3.68903 6.37561 5.41232 6.37561 7.53811C6.37561 9.6639 7.99831 11.3872 10 11.3872Z" fill="#3D58DB"/>
<mask id="mask1_1660_659" style="mask-type:luminance" maskUnits="userSpaceOnUse" x="6" y="3" width="8" height="9">
<path fill-rule="evenodd" clip-rule="evenodd" d="M10 11.3872C12.0017 11.3872 13.6244 9.6639 13.6244 7.53811C13.6244 5.41232 12.0017 3.68903 10 3.68903C7.99831 3.68903 6.37561 5.41232 6.37561 7.53811C6.37561 9.6639 7.99831 11.3872 10 11.3872Z" fill="white"/>
</mask>
<g mask="url(#mask1_1660_659)">
<path fill-rule="evenodd" clip-rule="evenodd" d="M13.7512 7.83294C13.7512 7.83294 13.5478 6.01797 12.0411 5.91944C10.5344 5.82092 10.1282 7.25043 10.0412 7.62917C9.95429 8.0079 9.73424 9.01821 8.14789 9.01821C6.56155 9.01821 6.41846 6.44919 6.41846 6.44919V3.41992H13.7512V7.83294Z" fill="#E31D1C"/>
</g>
<path fill-rule="evenodd" clip-rule="evenodd" d="M4.56215 1.28259L5.134 1.7998L2.48384 4.89474L1.91199 4.37753L4.56215 1.28259ZM5.50527 2.11957L6.07712 2.63677L3.52195 5.68687L2.9501 5.16967L5.50527 2.11957ZM7.01592 3.48406L6.44407 2.96685L3.8818 6.0401L4.45365 6.55731L7.01592 3.48406Z" fill="#272727"/>
<path fill-rule="evenodd" clip-rule="evenodd" d="M15.8524 1.06573L15.2804 1.581L16.2726 2.74527L16.8445 2.23001L15.8524 1.06573ZM17.6159 3.20738L17.0439 3.72265L18.0361 4.88692L18.608 4.37166L17.6159 3.20738ZM13.3925 3.258L13.9645 2.74273L14.9567 3.907L14.3847 4.42227L13.3925 3.258ZM15.728 4.88438L15.1561 5.39964L16.1482 6.56392L16.7202 6.04865L15.728 4.88438ZM14.3723 2.39449L14.9443 1.87922L17.7059 5.24226L17.1339 5.75753L14.3723 2.39449Z" fill="#272727"/>
<path fill-rule="evenodd" clip-rule="evenodd" d="M16.2844 8.90192L15.7076 8.38464L14.7071 9.55346L15.2839 10.0707L16.2844 8.90192ZM14.6023 10.9588L14.0255 10.4415L13.025 11.6103L13.6018 12.1276L14.6023 10.9588ZM17.5291 10.0205L18.1059 10.5378L17.1054 11.7066L16.5286 11.1893L17.5291 10.0205ZM16.5061 12.6423L15.9293 12.1251L14.9288 13.2939L15.5056 13.8112L16.5061 12.6423ZM14.9791 11.2363L15.5559 11.7535L14.5116 13.0016L13.9348 12.4843L14.9791 11.2363ZM17.2693 9.67387L16.6925 9.15659L15.6482 10.4047L16.225 10.922L17.2693 9.67387Z" fill="#272727"/>
<path fill-rule="evenodd" clip-rule="evenodd" d="M4.00415 9.30618L4.57616 8.79034L7.12903 11.7156L6.55702 12.2314L4.00415 9.30618ZM4.59965 11.8647L5.17165 11.3489L6.24997 12.5336L5.67797 13.0494L4.59965 11.8647ZM2.69344 10.4318L2.12144 10.9476L4.68756 13.9122L5.25957 13.3964L2.69344 10.4318ZM3.10043 10.0951L3.67243 9.57929L4.60723 10.6755L4.03522 11.1913L3.10043 10.0951Z" fill="#272727"/>
</g>
</g>
<defs>
<clipPath id="clip0_1660_659">
<rect width="20" height="15" fill="white"/>
</clipPath>
</defs>
</svg>
