<svg width="32" height="24" viewBox="0 0 32 24" fill="none" xmlns="http://www.w3.org/2000/svg">
<g clip-path="url(#clip0_1660_601)">
<rect width="32" height="24" fill="white"/>
<path fill-rule="evenodd" clip-rule="evenodd" d="M0 0V24H32V0H0Z" fill="#FFB400"/>
<mask id="mask0_1660_601" style="mask-type:luminance" maskUnits="userSpaceOnUse" x="0" y="0" width="32" height="24">
<path fill-rule="evenodd" clip-rule="evenodd" d="M0 0V24H32V0H0Z" fill="white"/>
</mask>
<g mask="url(#mask0_1660_601)">
<path fill-rule="evenodd" clip-rule="evenodd" d="M0 0V6H32V0H0Z" fill="#C51918"/>
<path fill-rule="evenodd" clip-rule="evenodd" d="M0 18V24H32V18H0Z" fill="#C51918"/>
<rect x="5.00806" y="10.272" width="1.12" height="5.824" fill="#F1F9FF"/>
<path fill-rule="evenodd" clip-rule="evenodd" d="M6.57606 9.264H4.56006V9.824H4.89606V10.272H6.24006V9.824H6.57606V9.264Z" fill="#C88A02"/>
<path fill-rule="evenodd" clip-rule="evenodd" d="M6.24006 16.432H6.57606V16.992H4.56006V16.432H4.89606V15.984H6.24006V16.432Z" fill="#C88A02"/>
<path fill-rule="evenodd" clip-rule="evenodd" d="M5.56806 9.376C5.81179 9.376 5.83656 9.28422 5.98036 9.14715C6.09201 9.04071 6.35206 8.9087 6.35206 8.76C6.35206 8.41979 6.00105 8.144 5.56806 8.144C5.13507 8.144 4.78406 8.41979 4.78406 8.76C4.78406 8.92567 4.96314 9.03644 5.09854 9.14715C5.2412 9.26379 5.34592 9.376 5.56806 9.376Z" fill="#AD1619"/>
<path fill-rule="evenodd" clip-rule="evenodd" d="M4.56006 16.992H6.57606V17.888C6.57606 17.888 6.32406 17.776 6.07206 17.776C5.82006 17.776 5.56806 17.888 5.56806 17.888C5.56806 17.888 5.31606 17.776 5.06406 17.776C4.81206 17.776 4.56006 17.888 4.56006 17.888V16.992Z" fill="#005BBF"/>
<mask id="mask1_1660_601" style="mask-type:luminance" maskUnits="userSpaceOnUse" x="4" y="16" width="3" height="2">
<path fill-rule="evenodd" clip-rule="evenodd" d="M4.56006 16.992H6.57606V17.888C6.57606 17.888 6.32406 17.776 6.07206 17.776C5.82006 17.776 5.56806 17.888 5.56806 17.888C5.56806 17.888 5.31606 17.776 5.06406 17.776C4.81206 17.776 4.56006 17.888 4.56006 17.888V16.992Z" fill="white"/>
</mask>
<g mask="url(#mask1_1660_601)">
<path d="M4.54181 17.7119L4.4978 17.6046C4.67938 17.5238 4.86161 17.4833 5.04411 17.4833C5.16202 17.4833 5.22359 17.4997 5.32826 17.5463C5.4202 17.5872 5.46786 17.6 5.56841 17.6C5.66896 17.6 5.71662 17.5872 5.80856 17.5463C5.91323 17.4997 5.9748 17.4833 6.09271 17.4833C6.27521 17.4833 6.45744 17.5238 6.63902 17.6046L6.59501 17.7119C6.42706 17.6372 6.25975 17.6 6.09271 17.6C5.99216 17.6 5.9445 17.6127 5.85256 17.6536C5.74789 17.7002 5.68632 17.7166 5.56841 17.7166C5.4505 17.7166 5.38893 17.7002 5.28426 17.6536C5.19232 17.6127 5.14466 17.6 5.04411 17.6C4.87707 17.6 4.70976 17.6372 4.54181 17.7119Z" fill="white"/>
<path d="M4.54181 17.3759L4.4978 17.2686C4.67938 17.1878 4.86161 17.1473 5.04411 17.1473C5.16202 17.1473 5.22359 17.1637 5.32826 17.2103C5.4202 17.2512 5.46786 17.2639 5.56841 17.2639C5.66896 17.2639 5.71662 17.2512 5.80856 17.2103C5.91323 17.1637 5.9748 17.1473 6.09271 17.1473C6.27521 17.1473 6.45744 17.1878 6.63902 17.2686L6.59501 17.3759C6.42706 17.3012 6.25975 17.2639 6.09271 17.2639C5.99216 17.2639 5.9445 17.2767 5.85256 17.3176C5.74789 17.3642 5.68632 17.3806 5.56841 17.3806C5.4505 17.3806 5.38893 17.3642 5.28426 17.3176C5.19232 17.2767 5.14466 17.2639 5.04411 17.2639C4.87707 17.2639 4.70976 17.3012 4.54181 17.3759Z" fill="white"/>
</g>
<rect x="15.984" y="10.272" width="1.12" height="5.824" fill="#F1F9FF"/>
<path fill-rule="evenodd" clip-rule="evenodd" d="M17.552 9.264H15.536V9.824H15.872V10.272H17.216V9.824H17.552V9.264Z" fill="#C88A02"/>
<path fill-rule="evenodd" clip-rule="evenodd" d="M17.216 16.432H17.552V16.992H15.536V16.432H15.872V15.984H17.216V16.432Z" fill="#C88A02"/>
<path fill-rule="evenodd" clip-rule="evenodd" d="M16.544 9.376C16.7877 9.376 16.8125 9.28422 16.9563 9.14715C17.068 9.04071 17.328 8.9087 17.328 8.76C17.328 8.41979 16.977 8.144 16.544 8.144C16.111 8.144 15.76 8.41979 15.76 8.76C15.76 8.92567 15.9391 9.03644 16.0745 9.14715C16.2171 9.26379 16.3219 9.376 16.544 9.376Z" fill="#AD1619"/>
<path fill-rule="evenodd" clip-rule="evenodd" d="M15.536 16.992H17.552V17.888C17.552 17.888 17.3 17.776 17.048 17.776C16.796 17.776 16.544 17.888 16.544 17.888C16.544 17.888 16.292 17.776 16.04 17.776C15.788 17.776 15.536 17.888 15.536 17.888V16.992Z" fill="#005BBF"/>
<mask id="mask2_1660_601" style="mask-type:luminance" maskUnits="userSpaceOnUse" x="15" y="16" width="3" height="2">
<path fill-rule="evenodd" clip-rule="evenodd" d="M15.536 16.992H17.552V17.888C17.552 17.888 17.3 17.776 17.048 17.776C16.796 17.776 16.544 17.888 16.544 17.888C16.544 17.888 16.292 17.776 16.04 17.776C15.788 17.776 15.536 17.888 15.536 17.888V16.992Z" fill="white"/>
</mask>
<g mask="url(#mask2_1660_601)">
<path d="M15.5178 17.7119L15.4738 17.6046C15.6553 17.5238 15.8376 17.4833 16.0201 17.4833C16.138 17.4833 16.1995 17.4997 16.3042 17.5463C16.3962 17.5872 16.4438 17.6 16.5444 17.6C16.6449 17.6 16.6926 17.5872 16.7845 17.5463C16.8892 17.4997 16.9508 17.4833 17.0687 17.4833C17.2512 17.4833 17.4334 17.5238 17.615 17.6046L17.571 17.7119C17.403 17.6372 17.2357 17.6 17.0687 17.6C16.9681 17.6 16.9205 17.6127 16.8285 17.6536C16.7238 17.7002 16.6623 17.7166 16.5444 17.7166C16.4265 17.7166 16.3649 17.7002 16.2602 17.6536C16.1683 17.6127 16.1206 17.6 16.0201 17.6C15.853 17.6 15.6857 17.6372 15.5178 17.7119Z" fill="white"/>
<path d="M15.5178 17.3759L15.4738 17.2686C15.6553 17.1878 15.8376 17.1473 16.0201 17.1473C16.138 17.1473 16.1995 17.1637 16.3042 17.2103C16.3962 17.2512 16.4438 17.2639 16.5444 17.2639C16.6449 17.2639 16.6926 17.2512 16.7845 17.2103C16.8892 17.1637 16.9508 17.1473 17.0687 17.1473C17.2512 17.1473 17.4334 17.1878 17.615 17.2686L17.571 17.3759C17.403 17.3012 17.2357 17.2639 17.0687 17.2639C16.9681 17.2639 16.9205 17.2767 16.8285 17.3176C16.7238 17.3642 16.6623 17.3806 16.5444 17.3806C16.4265 17.3806 16.3649 17.3642 16.2602 17.3176C16.1683 17.2767 16.1206 17.2639 16.0201 17.2639C15.853 17.2639 15.6857 17.3012 15.5178 17.3759Z" fill="white"/>
</g>
<path fill-rule="evenodd" clip-rule="evenodd" d="M4.988 15.6799C5.18993 15.4351 5.30285 15.2124 5.30285 14.9759C5.30285 14.8267 5.25846 14.6979 5.1807 14.5927L5.19384 14.5868C5.19263 14.5873 5.41536 14.4902 5.4929 14.453C5.63706 14.3839 5.76405 14.3107 5.88788 14.2207C5.96693 14.1632 6.07285 14.1006 6.23431 14.0138C6.26221 13.9989 6.33783 13.9587 6.38606 13.9331L6.427 13.9114C6.50548 13.8695 6.56391 13.8374 6.6182 13.8059C6.78737 13.7078 6.89917 13.6267 6.98467 13.5183C7.18719 13.2615 7.14514 12.9134 6.86135 12.7201C6.72231 12.6255 6.53468 12.5712 6.25965 12.5284L6.20278 12.5196C6.10883 12.5051 5.9283 12.4772 5.8663 12.4674C5.73468 12.4468 5.61725 12.4275 5.51254 12.4092C6.20111 12.2946 7.18435 12.3367 7.61685 12.56L8.0279 11.7639C7.14656 11.3088 5.13843 11.3553 4.38829 11.8719C3.8381 12.2508 3.91193 12.8236 4.48438 13.0702C4.72358 13.1733 5.03541 13.2416 5.61246 13.3344C5.51576 13.3904 5.43559 13.4417 5.36089 13.496C5.28513 13.5511 5.20397 13.5979 5.10552 13.6451C5.05844 13.6677 4.91905 13.7289 4.85513 13.757L4.85508 13.757L4.85508 13.757L4.82296 13.7711C4.35668 13.9831 4.13038 14.2764 4.198 14.8059L4.23461 15.0925L4.30027 15.1127L4.988 15.6799ZM4.41162 14.9392L4.4102 14.9434L4.41128 14.9404L4.41162 14.9392ZM16.706 14.9759C16.706 15.2124 16.8189 15.4351 17.0208 15.6799L17.7086 15.1127L17.7742 15.0925L17.8108 14.8059C17.8785 14.2764 17.6522 13.9831 17.1859 13.7711L17.1538 13.757C17.0899 13.7289 16.9504 13.6677 16.9033 13.6451C16.8049 13.5979 16.7237 13.5511 16.648 13.496C16.5733 13.4417 16.4931 13.3904 16.3964 13.3344C16.9734 13.2416 17.2853 13.1733 17.5245 13.0702C18.0969 12.8236 18.1707 12.2508 17.6205 11.8719C16.8704 11.3553 14.8623 11.3088 13.9809 11.7639L14.392 12.56C14.8245 12.3367 15.8077 12.2946 16.4963 12.4092C16.3916 12.4275 16.2742 12.4468 16.1425 12.4674C16.0806 12.4772 15.9001 12.5051 15.8061 12.5196L15.8058 12.5196L15.7492 12.5284C15.4742 12.5712 15.2865 12.6255 15.1475 12.7201C14.8637 12.9134 14.8217 13.2615 15.0242 13.5183C15.1097 13.6267 15.2215 13.7078 15.3906 13.8059C15.4449 13.8374 15.5034 13.8695 15.5818 13.9114L15.6226 13.933C15.6708 13.9586 15.7466 13.9988 15.7745 14.0138C15.936 14.1006 16.0419 14.1632 16.121 14.2207C16.2448 14.3107 16.3718 14.3839 16.5159 14.453C16.5935 14.4902 16.8162 14.5873 16.815 14.5868L16.8281 14.5927C16.7504 14.6979 16.706 14.8267 16.706 14.9759Z" fill="#AD1619"/>
<path d="M5.92341 12.4L6.254 12.4684V12.9611C5.9019 13.2421 5.00806 13.7156 5.00806 13.7156V12.4H5.92341Z" fill="#F1F9FF"/>
<path d="M16.3146 12.4L15.984 12.4684V12.9611C16.3361 13.2421 17.23 13.7156 17.23 13.7156V12.4H16.3146Z" fill="#F1F9FF"/>
<path fill-rule="evenodd" clip-rule="evenodd" d="M14.7761 7.20598V7.04199C14.2001 6.62855 13.5968 6.42183 12.9663 6.42183C12.3619 6.15435 11.7501 6.05052 11.1309 6.11035C11.1311 6.10844 11.1312 6.10746 11.1312 6.10746C10.2002 6.01637 9.26198 6.42183 9.26198 6.42183C8.31627 6.42183 7.45215 7.04199 7.45215 7.04199V7.20598L8.58178 8.3405C8.58178 8.3405 8.89974 9.4325 11.1266 9.17585V9.17862C11.1266 9.17862 12.6009 9.13838 12.7045 9.10392C12.7456 9.09025 12.7883 9.07781 12.8318 9.06509C13.1206 8.98078 13.4503 8.88453 13.6465 8.3405L14.7761 7.20598ZM11.1266 6.16052C11.0944 6.53823 10.9109 8.81517 11.1266 9.16817V6.16052Z" fill="#AD1619"/>
<path fill-rule="evenodd" clip-rule="evenodd" d="M8.31374 8.14958L8.31449 8.14613L7.51978 7.39844L7.59652 7.31686L8.34225 8.01846L8.36133 7.93069C8.48333 7.95722 8.5725 7.96697 8.62448 7.96145V7.80925L8.78978 7.89871C8.87109 7.94271 8.98753 7.95454 9.1409 7.92959C9.25354 7.91126 9.32955 7.78044 9.3544 7.50167L9.40457 6.93891L9.57287 7.47826C9.64903 7.72232 9.76521 7.8299 9.93061 7.8299C10.0922 7.8299 10.1571 7.77068 10.1643 7.6214L10.1846 7.19802L10.3761 7.57618C10.445 7.71241 10.5402 7.77423 10.6754 7.77423C10.8689 7.77423 10.9981 7.61295 10.9981 7.35991H11.0017H11.2221H11.2257C11.2257 7.61295 11.355 7.77423 11.5484 7.77423C11.6837 7.77423 11.7788 7.71241 11.8478 7.57618L12.0392 7.19802L12.0596 7.6214C12.0667 7.77068 12.1317 7.8299 12.2932 7.8299C12.4586 7.8299 12.5748 7.72232 12.6509 7.47826L12.8192 6.93891L12.8694 7.50167C12.8943 7.78044 12.9703 7.91126 13.0829 7.92959C13.2363 7.95454 13.3527 7.94271 13.434 7.89871L13.5993 7.80925V7.96145C13.6513 7.96697 13.7405 7.95722 13.8625 7.93069L13.8979 8.09356L14.7234 7.31686L14.8002 7.39844L13.7729 8.36495C13.623 8.64098 13.5475 8.82317 13.5475 8.89885C13.5475 9.01431 13.2471 9.08284 12.6609 9.15323C12.2016 9.20838 11.6596 9.24539 11.2162 9.25092V9.25164L11.16 9.25146L11.1038 9.25164V9.25092C10.6604 9.24539 10.1184 9.20838 9.65908 9.15323C9.07282 9.08284 8.77244 9.01431 8.77244 8.89885C8.77244 8.88453 8.76973 8.8664 8.76434 8.84455C8.70522 8.76927 8.66366 8.6461 8.636 8.53501C8.61005 8.48306 8.5804 8.42632 8.54708 8.36495L8.31948 8.15082L8.31374 8.14958ZM13.8192 8.16761C13.6358 8.20008 13.5033 8.1968 13.433 8.13958C13.3231 8.17156 13.1942 8.17464 13.0469 8.15068C12.8897 8.12509 12.7802 8.02051 12.7143 7.84701C12.6283 7.95659 12.5195 8.02424 12.3893 8.04612C13.106 8.14776 13.608 8.29063 13.608 8.29063C13.608 8.29063 13.5957 8.39678 13.5656 8.52158C13.5974 8.45625 13.6352 8.38365 13.6788 8.30353L13.6896 8.28953L13.8192 8.16761ZM12.0511 8.00354C11.9887 7.97257 11.9389 7.92766 11.903 7.86978C11.8495 7.91697 11.7888 7.95149 11.7213 7.97278C11.8339 7.9814 11.9441 7.99181 12.0511 8.00354ZM11.3259 7.95099C11.2386 7.91067 11.1661 7.84611 11.1119 7.76338C11.0581 7.84553 10.9862 7.90976 10.8998 7.95013C10.951 7.94861 11.0025 7.94753 11.0542 7.94695V7.94644L11.0991 7.94657L11.144 7.94644V7.94695C11.205 7.94764 11.2657 7.949 11.3259 7.95099ZM8.62221 8.28186L8.51779 8.18362C8.64314 8.19605 8.73592 8.18426 8.79079 8.13958C8.90072 8.17156 9.02966 8.17464 9.17687 8.15068C9.33411 8.12509 9.44361 8.02051 9.5095 7.84701C9.59302 7.95342 9.69799 8.02029 9.82328 8.0441C9.20534 8.13092 8.74429 8.24904 8.62221 8.28186ZM10.4977 7.97122C10.3892 7.97928 10.283 7.98903 10.1797 8.00004C10.2388 7.96922 10.2862 7.92551 10.3209 7.86978C10.373 7.91584 10.4321 7.94982 10.4977 7.97122ZM13.2531 8.90104C13.3315 8.93776 13.3944 8.90113 13.4442 8.83082C13.4399 8.85024 13.4372 8.8678 13.4361 8.88352C13.4295 8.88782 13.4194 8.893 13.4062 8.89856C13.3693 8.91407 13.313 8.93059 13.2397 8.94731C13.0956 8.98018 12.8906 9.01285 12.6475 9.04203C12.1729 9.09901 11.6086 9.13651 11.16 9.13945C10.7113 9.13651 10.147 9.09901 9.67244 9.04203C9.4294 9.01285 9.22434 8.98018 9.08027 8.94731C9.01884 8.93329 8.96931 8.91942 8.93317 8.90616C8.93714 8.90465 8.94116 8.90294 8.94523 8.90104C9.18989 8.78656 10.8078 8.67912 11.0991 8.66058C11.3905 8.67912 13.0084 8.78656 13.2531 8.90104ZM13.561 8.88114L13.5601 8.88219L13.5609 8.88106L13.5616 8.88053L13.561 8.88114Z" fill="#C88A02"/>
<path fill-rule="evenodd" clip-rule="evenodd" d="M11.1124 5.34707C11.2979 5.34707 11.4484 5.19664 11.4484 5.01107C11.4484 4.8255 11.2979 4.67507 11.1124 4.67507C10.9268 4.67507 10.7764 4.8255 10.7764 5.01107C10.7764 5.19664 10.9268 5.34707 11.1124 5.34707Z" fill="#005BBF"/>
<path fill-rule="evenodd" clip-rule="evenodd" d="M10.8938 6.9968C10.9009 7.03368 10.9121 7.06801 10.9263 7.09861C10.8829 7.08203 10.8314 7.07243 10.7761 7.07243C10.6215 7.07243 10.4961 7.14764 10.4961 7.24043C10.4961 7.33321 10.6215 7.40843 10.7761 7.40843C10.9307 7.40843 11.0561 7.33321 11.0561 7.24043C11.0561 7.33321 11.1815 7.40843 11.3361 7.40843C11.4907 7.40843 11.6161 7.33321 11.6161 7.24043C11.6161 7.14764 11.4907 7.07243 11.3361 7.07243C11.2972 7.07243 11.2601 7.07719 11.2264 7.08581C11.2345 7.03988 11.2342 6.98721 11.2236 6.93269C11.1941 6.78089 11.0963 6.67219 11.0052 6.68989C10.9142 6.7076 10.8642 6.84501 10.8938 6.9968ZM11.0561 7.24043L11.056 7.2353L11.0562 7.23538L11.0561 7.24043ZM9.24627 7.21061C9.23212 7.18001 9.22092 7.14568 9.21375 7.1088C9.18425 6.95701 9.23416 6.8196 9.32524 6.80189C9.41632 6.78419 9.51407 6.89289 9.54358 7.04469C9.55418 7.09921 9.55453 7.15188 9.54641 7.19781C9.58009 7.18919 9.61717 7.18443 9.65609 7.18443C9.81073 7.18443 9.93609 7.25964 9.93609 7.35243C9.93609 7.44521 9.81073 7.52043 9.65609 7.52043C9.50145 7.52043 9.37609 7.44521 9.37609 7.35243L9.37622 7.34738L9.37597 7.3473L9.37609 7.35243C9.37609 7.44521 9.25073 7.52043 9.09609 7.52043C8.94145 7.52043 8.81609 7.44521 8.81609 7.35243C8.81609 7.25964 8.94145 7.18443 9.09609 7.18443C9.15135 7.18443 9.20287 7.19403 9.24627 7.21061ZM12.754 7.31299C12.7411 7.40487 12.6065 7.46191 12.4534 7.44038C12.3002 7.41886 12.1866 7.32693 12.1995 7.23505C12.2124 7.14317 12.347 7.08613 12.5001 7.10765C12.5549 7.11534 12.6045 7.13203 12.6452 7.15448C12.6354 7.12221 12.6291 7.08666 12.6272 7.04914C12.6191 6.89471 12.6876 6.76559 12.7803 6.76073C12.8729 6.75588 12.9546 6.87713 12.9627 7.03156C12.9656 7.08702 12.9586 7.13922 12.9442 7.18358C12.9788 7.17973 13.0161 7.18017 13.0547 7.18559C13.2078 7.20711 13.3215 7.29904 13.3086 7.39093C13.2957 7.48281 13.1611 7.53984 13.0079 7.51832C12.8548 7.4968 12.7411 7.40487 12.754 7.31299ZM12.754 7.31299L12.7546 7.30789L12.7548 7.30801L12.754 7.31299ZM13.8204 7.75724C13.957 7.82984 14.103 7.82228 14.1465 7.74036L14.1488 7.73577C14.1623 7.75001 14.1782 7.76037 14.1964 7.76592C14.2851 7.79305 14.3937 7.69516 14.4389 7.54728C14.4841 7.39939 14.4488 7.25752 14.3601 7.23039C14.2714 7.20327 14.1628 7.30116 14.1176 7.44904C14.1066 7.48496 14.1004 7.52053 14.0985 7.55419C14.068 7.51918 14.027 7.48651 13.9782 7.46057C13.8416 7.38797 13.6956 7.39553 13.6521 7.47746C13.6085 7.55938 13.6839 7.68464 13.8204 7.75724ZM8.32491 7.79155C8.18837 7.86415 8.04237 7.85659 7.99882 7.77467C7.99801 7.77315 7.99725 7.77163 7.99652 7.77008C7.98307 7.78432 7.96715 7.79468 7.94898 7.80023C7.86025 7.82736 7.75167 7.72947 7.70646 7.58159C7.66125 7.4337 7.69653 7.29183 7.78526 7.2647C7.87399 7.23757 7.98257 7.33547 8.02778 7.48335C8.03876 7.51927 8.045 7.55484 8.04687 7.5885C8.0774 7.55349 8.11838 7.52082 8.16717 7.49488C8.30371 7.42228 8.44971 7.42984 8.49327 7.51176C8.53683 7.59369 8.46145 7.71895 8.32491 7.79155Z" fill="#C88A02"/>
<path fill-rule="evenodd" clip-rule="evenodd" d="M10.9869 4.0766H11.2202V4.224H11.3727V4.45734H11.2202V4.924H11.3727V5.15734H10.832V4.924H10.9869V4.45734H10.832V4.224H10.9869V4.0766Z" fill="#C88A02"/>
<rect x="10.9441" y="5.344" width="0.448" height="1.456" fill="#C88A02"/>
<path d="M9.14067 5.58784L9.13872 5.69982C8.14562 5.68249 7.57596 5.82741 7.43136 6.11626C7.28186 6.41489 7.30966 6.77791 7.51914 7.20914L7.4184 7.25808C7.19489 6.79798 7.16437 6.39939 7.33121 6.06612C7.50294 5.72308 8.10556 5.56977 9.14067 5.58784Z" fill="white"/>
<path d="M9.33286 6.58098L9.27544 6.67715C9.05917 6.54801 8.95093 6.32764 8.95093 6.02394C8.95093 5.58746 9.17577 5.3315 9.67312 5.15634C9.99055 5.04455 10.4242 5.09039 10.9752 5.29016L10.937 5.39546C10.408 5.20367 9.99874 5.16041 9.71033 5.26198C9.25414 5.42264 9.06293 5.64032 9.06293 6.02394C9.06293 6.29045 9.15283 6.47349 9.33286 6.58098Z" fill="white"/>
<path d="M7.66018 7.03739L7.44884 7.11161C7.22956 6.48727 7.29218 6.06325 7.66687 5.88035C7.99704 5.71918 8.47822 5.65359 9.11282 5.67931L9.10375 5.90312C8.50291 5.87877 8.05591 5.9397 7.76513 6.08165C7.51889 6.20185 7.47384 6.50684 7.66018 7.03739Z" fill="#C88A02"/>
<path d="M10.1294 5.43869C9.61727 5.43869 9.40696 5.56343 9.28681 5.93172C9.21024 6.16642 9.2845 6.36673 9.52529 6.55372L9.3879 6.73064C9.07616 6.48856 8.96625 6.19207 9.07386 5.86224C9.22698 5.39289 9.52744 5.21469 10.1294 5.21469C10.524 5.21469 10.8313 5.31835 11.0453 5.52931L11.0787 5.56221V6.64218H10.8547V5.65795C10.6876 5.51278 10.4475 5.43869 10.1294 5.43869Z" fill="#C88A02"/>
<path d="M13.0491 5.69984L13.0511 5.81182C14.0442 5.79449 14.6139 5.93941 14.7585 6.22826C14.908 6.52689 14.8802 6.88991 14.6707 7.32114L14.7714 7.37008C14.9949 6.90998 15.0254 6.51139 14.8586 6.17812C14.6869 5.83508 14.0843 5.68177 13.0491 5.69984Z" fill="white"/>
<path d="M12.6984 6.60427L12.7558 6.70043C12.9721 6.5713 13.0803 6.35093 13.0803 6.04722C13.0803 5.61074 12.8555 5.35479 12.3581 5.17963C12.0407 5.06784 11.6071 5.11368 11.0561 5.31345L11.0943 5.41875C11.6232 5.22696 12.0325 5.1837 12.3209 5.28527C12.7771 5.44593 12.9683 5.6636 12.9683 6.04722C12.9683 6.31374 12.8784 6.49678 12.6984 6.60427Z" fill="white"/>
<path d="M14.5993 7.14939L14.8107 7.22361C15.03 6.59927 14.9673 6.17525 14.5926 5.99235C14.2625 5.83118 13.7813 5.76559 13.1467 5.79131L13.1558 6.01512C13.7566 5.99077 14.2036 6.0517 14.4944 6.19364C14.7406 6.31385 14.7857 6.61884 14.5993 7.14939Z" fill="#C88A02"/>
<path d="M12.1174 5.456C12.6296 5.456 12.8399 5.58074 12.96 5.94902C13.0366 6.18372 12.9623 6.38404 12.7215 6.57102L12.8589 6.74794C13.1707 6.50586 13.2806 6.20938 13.173 5.87955C13.0198 5.4102 12.7194 5.232 12.1174 5.232C11.7229 5.232 11.4155 5.33566 11.2015 5.54662L11.1681 5.57952V6.65948H11.3921V5.67526C11.5593 5.53008 11.7993 5.456 12.1174 5.456Z" fill="#C88A02"/>
<path opacity="0.3" fill-rule="evenodd" clip-rule="evenodd" d="M7.47205 9.264H14.752V15.8048C14.752 15.8048 14.2113 18 11.112 18C8.01282 18 7.47205 15.747 7.47205 15.747V9.264Z" fill="#E1E5E8"/>
<mask id="mask3_1660_601" style="mask-type:luminance" maskUnits="userSpaceOnUse" x="7" y="9" width="8" height="9">
<path fill-rule="evenodd" clip-rule="evenodd" d="M7.47205 9.264H14.752V15.8048C14.752 15.8048 14.2113 18 11.112 18C8.01282 18 7.47205 15.747 7.47205 15.747V9.264Z" fill="white"/>
</mask>
<g mask="url(#mask3_1660_601)">
<rect x="7.47205" y="13.296" width="3.696" height="4.368" fill="#FFC034"/>
<rect x="7.92004" y="13.52" width="0.448" height="4.144" fill="#AD1619"/>
<rect x="9.48804" y="13.52" width="0.448" height="4.144" fill="#AD1619"/>
<rect x="8.7041" y="13.52" width="0.448" height="4.144" fill="#AD1619"/>
<rect x="10.2721" y="13.52" width="0.448" height="4.144" fill="#AD1619"/>
<rect x="7.47205" y="9.152" width="3.696" height="4.256" fill="#AD1619"/>
<rect x="11.056" y="13.184" width="3.696" height="4.256" fill="#AD1619"/>
<rect x="11.056" y="9.264" width="3.92" height="4.144" fill="#F1F9FF"/>
<path fill-rule="evenodd" clip-rule="evenodd" d="M9.0401 9.6H9.3761V10.5292H9.6001V10.0646H9.9361V10.5292H10.2721V11.1099H9.9361V12.1553H10.2721V12.736H8.2561V12.1553H8.5921V11.1099H8.2561V10.5292H8.4801V10.0646H8.8161V10.5292H9.0401V9.6Z" fill="#C88A02"/>
<path d="M12.9789 9.79502L13.2082 9.54948L13.6898 9.99931L13.4604 10.2448L12.9789 9.79502Z" fill="#C88A02"/>
<path fill-rule="evenodd" clip-rule="evenodd" d="M14.3601 16.1401V13.688H11.5601V16.1195L11.5645 16.1385C11.7062 16.7424 12.1889 17.048 12.9601 17.048C13.7304 17.048 14.2131 16.7503 14.3554 16.1595L14.3601 16.1401ZM12.9601 16.712C12.3414 16.712 12.0035 16.5036 11.8961 16.0799V14.024H14.0241V16.0994C13.9169 16.5092 13.579 16.712 12.9601 16.712Z" fill="#FFC034"/>
<path fill-rule="evenodd" clip-rule="evenodd" d="M13.0756 13.8929H12.8423V15.0046L11.9225 14.0042L11.7576 14.1558L12.5894 15.0605H11.8357V15.3965H12.4147H12.6077L11.7576 16.3212L11.9225 16.4728L12.8423 15.4724V16.7718H13.0756V15.5893L13.8879 16.4728L14.0528 16.3212L13.2026 15.3965H14.1516V15.0605H13.221L14.0528 14.1558L13.8879 14.0042L13.0756 14.8877V13.8929Z" fill="#FFC034"/>
<path fill-rule="evenodd" clip-rule="evenodd" d="M13.4828 17.4427C13.4828 17.4427 11.1106 17.6292 11.1106 16.0992C11.1106 16.0992 11.088 17.4427 8.61096 17.4427V18.6505H13.4828V17.4427Z" fill="#F1F9FF"/>
<path fill-rule="evenodd" clip-rule="evenodd" d="M11.1121 14.192C11.576 14.192 11.9521 13.7908 11.9521 13.296C11.9521 12.8012 11.576 12.4 11.1121 12.4C10.6482 12.4 10.2721 12.8012 10.2721 13.296C10.2721 13.7908 10.6482 14.192 11.1121 14.192Z" fill="#005BBF" stroke="#AD1619" stroke-width="1.16667"/>
</g>
</g>
</g>
<defs>
<clipPath id="clip0_1660_601">
<rect width="32" height="24" fill="white"/>
</clipPath>
</defs>
</svg>
